<?xml version="1.0" encoding="UTF-8"?>
<svg version="1.1" xmlns="http://www.w3.org/2000/svg" width="1028" height="312">
<path d="M0 0 C339.24 0 678.48 0 1028 0 C1028 102.96 1028 205.92 1028 312 C688.76 312 349.52 312 0 312 C0 209.04 0 106.08 0 0 Z " fill="#0C0C0E" transform="translate(0,0)"/>
<path d="M0 0 C47.52 0 95.04 0 144 0 C144 8.25 144 16.5 144 25 C95.49 25 46.98 25 -3 25 C-3 23.68 -3 22.36 -3 21 C-2.34 21 -1.68 21 -1 21 C-1 19.68 -1 18.36 -1 17 C-1.99 17 -2.98 17 -4 17 C-4 15.68 -4 14.36 -4 13 C-3.01 13 -2.02 13 -1 13 C-1 11.35 -1 9.7 -1 8 C-1.66 8 -2.32 8 -3 8 C-3 6.68 -3 5.36 -3 4 C-2.34 4 -1.68 4 -1 4 C-0.67 2.68 -0.34 1.36 0 0 Z " fill="#F6F6F6" transform="translate(30,20)"/>
<path d="M0 0 C42.9 0 85.8 0 130 0 C130 8.25 130 16.5 130 25 C86.11 25 42.22 25 -3 25 C-3 23.68 -3 22.36 -3 21 C-2.34 21 -1.68 21 -1 21 C-1 19.68 -1 18.36 -1 17 C-1.99 17 -2.98 17 -4 17 C-4 15.68 -4 14.36 -4 13 C-3.01 13 -2.02 13 -1 13 C-1 11.35 -1 9.7 -1 8 C-1.66 8 -2.32 8 -3 8 C-3 6.68 -3 5.36 -3 4 C-2.34 4 -1.68 4 -1 4 C-0.67 2.68 -0.34 1.36 0 0 Z " fill="#F5F5F5" transform="translate(30,104)"/>
<path d="M0 0 C38.28 0 76.56 0 116 0 C116 8.25 116 16.5 116 25 C76.73 25 37.46 25 -3 25 C-3 23.68 -3 22.36 -3 21 C-2.01 21 -1.02 21 0 21 C0 19.68 0 18.36 0 17 C-0.99 17 -1.98 17 -3 17 C-3 15.68 -3 14.36 -3 13 C-2.01 13 -1.02 13 0 13 C0 11.35 0 9.7 0 8 C-0.99 8 -1.98 8 -3 8 C-2.67 6.68 -2.34 5.36 -2 4 C-1.34 4 -0.68 4 0 4 C0 2.68 0 1.36 0 0 Z " fill="#F6F6F6" transform="translate(488,76)"/>
<path d="M0 0 C38.28 0 76.56 0 116 0 C116 8.25 116 16.5 116 25 C77.72 25 39.44 25 0 25 C0 16.75 0 8.5 0 0 Z " fill="#F5F5F5" transform="translate(861,104)"/>
<path d="M0 0 C33.66 0 67.32 0 102 0 C102 8.25 102 16.5 102 25 C67.35 25 32.7 25 -3 25 C-3 23.68 -3 22.36 -3 21 C-2.01 21 -1.02 21 0 21 C0 19.68 0 18.36 0 17 C-0.99 17 -1.98 17 -3 17 C-3 15.68 -3 14.36 -3 13 C-2.01 13 -1.02 13 0 13 C0 11.35 0 9.7 0 8 C-0.99 8 -1.98 8 -3 8 C-2.67 6.68 -2.34 5.36 -2 4 C-1.34 4 -0.68 4 0 4 C0 2.68 0 1.36 0 0 Z " fill="#F6F6F6" transform="translate(488,245)"/>
<path d="M0 0 C33.33 0 66.66 0 101 0 C101 8.25 101 16.5 101 25 C66.68 25 32.36 25 -3 25 C-3 23.68 -3 22.36 -3 21 C-2.34 21 -1.68 21 -1 21 C-1 19.68 -1 18.36 -1 17 C-1.99 17 -2.98 17 -4 17 C-4 15.68 -4 14.36 -4 13 C-3.01 13 -2.02 13 -1 13 C-1 11.35 -1 9.7 -1 8 C-1.66 8 -2.32 8 -3 8 C-3 6.68 -3 5.36 -3 4 C-2.34 4 -1.68 4 -1 4 C-0.67 2.68 -0.34 1.36 0 0 Z " fill="#F6F6F6" transform="translate(331,188)"/>
<path d="M0 0 C33.33 0 66.66 0 101 0 C101 8.25 101 16.5 101 25 C66.68 25 32.36 25 -3 25 C-3 23.68 -3 22.36 -3 21 C-2.34 21 -1.68 21 -1 21 C-1 19.68 -1 18.36 -1 17 C-1.99 17 -2.98 17 -4 17 C-4 15.68 -4 14.36 -4 13 C-3.01 13 -2.02 13 -1 13 C-1 11.35 -1 9.7 -1 8 C-1.66 8 -2.32 8 -3 8 C-3 6.68 -3 5.36 -3 4 C-2.34 4 -1.68 4 -1 4 C-0.67 2.68 -0.34 1.36 0 0 Z " fill="#F6F6F6" transform="translate(331,76)"/>
<path d="M0 0 C29.04 0 58.08 0 88 0 C88 8.25 88 16.5 88 25 C57.97 25 27.94 25 -3 25 C-3 23.68 -3 22.36 -3 21 C-2.01 21 -1.02 21 0 21 C0 19.68 0 18.36 0 17 C-0.99 17 -1.98 17 -3 17 C-3 15.68 -3 14.36 -3 13 C-2.01 13 -1.02 13 0 13 C0 11.35 0 9.7 0 8 C-0.99 8 -1.98 8 -3 8 C-2.67 6.68 -2.34 5.36 -2 4 C-1.34 4 -0.68 4 0 4 C0 2.68 0 1.36 0 0 Z " fill="#F5F5F5" transform="translate(875,188)"/>
<path d="M0 0 C29.04 0 58.08 0 88 0 C88 8.25 88 16.5 88 25 C57.97 25 27.94 25 -3 25 C-3 23.68 -3 22.36 -3 21 C-2.01 21 -1.02 21 0 21 C0 19.68 0 18.36 0 17 C-0.99 17 -1.98 17 -3 17 C-3 15.68 -3 14.36 -3 13 C-2.01 13 -1.02 13 0 13 C0 11.35 0 9.7 0 8 C-0.99 8 -1.98 8 -3 8 C-2.67 6.68 -2.34 5.36 -2 4 C-1.34 4 -0.68 4 0 4 C0 2.68 0 1.36 0 0 Z " fill="#F5F5F5" transform="translate(703,188)"/>
<path d="M0 0 C29.04 0 58.08 0 88 0 C88 8.25 88 16.5 88 25 C57.97 25 27.94 25 -3 25 C-3 23.68 -3 22.36 -3 21 C-2.01 21 -1.02 21 0 21 C0 19.68 0 18.36 0 17 C-0.99 17 -1.98 17 -3 17 C-3 15.68 -3 14.36 -3 13 C-2.01 13 -1.02 13 0 13 C0 11.35 0 9.7 0 8 C-0.99 8 -1.98 8 -3 8 C-2.67 6.68 -2.34 5.36 -2 4 C-1.34 4 -0.68 4 0 4 C0 2.68 0 1.36 0 0 Z " fill="#F5F5F5" transform="translate(875,20)"/>
<path d="M0 0 C29.04 0 58.08 0 88 0 C88 8.25 88 16.5 88 25 C57.97 25 27.94 25 -3 25 C-3 23.68 -3 22.36 -3 21 C-2.01 21 -1.02 21 0 21 C0 19.68 0 18.36 0 17 C-0.99 17 -1.98 17 -3 17 C-3 15.68 -3 14.36 -3 13 C-2.01 13 -1.02 13 0 13 C0 11.35 0 9.7 0 8 C-0.99 8 -1.98 8 -3 8 C-2.67 6.68 -2.34 5.36 -2 4 C-1.34 4 -0.68 4 0 4 C0 2.68 0 1.36 0 0 Z " fill="#F5F5F5" transform="translate(703,20)"/>
<path d="M0 0 C24.75 0 49.5 0 75 0 C75 1.32 75 2.64 75 4 C74.34 4 73.68 4 73 4 C73 5.65 73 7.3 73 9 C73.66 9 74.32 9 75 9 C75 9.99 75 10.98 75 12 C74.34 12 73.68 12 73 12 C73 13.65 73 15.3 73 17 C73.66 17 74.32 17 75 17 C75 18.32 75 19.64 75 21 C74.34 21 73.68 21 73 21 C73 22.32 73 23.64 73 25 C47.92 25 22.84 25 -3 25 C-3 23.68 -3 22.36 -3 21 C-2.01 21 -1.02 21 0 21 C0 19.68 0 18.36 0 17 C-0.99 17 -1.98 17 -3 17 C-3 15.68 -3 14.36 -3 13 C-2.01 13 -1.02 13 0 13 C0 11.35 0 9.7 0 8 C-0.99 8 -1.98 8 -3 8 C-2.67 6.68 -2.34 5.36 -2 4 C-1.34 4 -0.68 4 0 4 C0 2.68 0 1.36 0 0 Z " fill="#F5F5F5" transform="translate(488,188)"/>
<path d="M0 0 C19.47 0 38.94 0 59 0 C59 8.25 59 16.5 59 25 C38.54 25 18.08 25 -3 25 C-3 23.68 -3 22.36 -3 21 C-2.01 21 -1.02 21 0 21 C0 19.68 0 18.36 0 17 C-0.99 17 -1.98 17 -3 17 C-3 15.68 -3 14.36 -3 13 C-2.01 13 -1.02 13 0 13 C0 11.35 0 9.7 0 8 C-0.99 8 -1.98 8 -3 8 C-2.67 6.68 -2.34 5.36 -2 4 C-1.34 4 -0.68 4 0 4 C0 2.68 0 1.36 0 0 Z " fill="#F6F6F6" transform="translate(230,76)"/>
<path d="M0 0 C14.85 0 29.7 0 45 0 C45 8.25 45 16.5 45 25 C29.16 25 13.32 25 -3 25 C-3 23.68 -3 22.36 -3 21 C-2.01 21 -1.02 21 0 21 C0 19.68 0 18.36 0 17 C-0.99 17 -1.98 17 -3 17 C-3 15.68 -3 14.36 -3 13 C-2.01 13 -1.02 13 0 13 C0 11.35 0 9.7 0 8 C-0.99 8 -1.98 8 -3 8 C-2.67 6.68 -2.34 5.36 -2 4 C-1.34 4 -0.68 4 0 4 C0 2.68 0 1.36 0 0 Z " fill="#F4F4F4" transform="translate(187,104)"/>
<path d="M0 0 C14.52 0 29.04 0 44 0 C44 8.25 44 16.5 44 25 C29.48 25 14.96 25 0 25 C0 16.75 0 8.5 0 0 Z " fill="#F5F5F5" transform="translate(560,160)"/>
<path d="M0 0 C10.56 0 21.12 0 32 0 C32 1.32 32 2.64 32 4 C31.34 4 30.68 4 30 4 C30 5.65 30 7.3 30 9 C30.66 9 31.32 9 32 9 C32 9.99 32 10.98 32 12 C31.34 12 30.68 12 30 12 C30 13.65 30 15.3 30 17 C30.66 17 31.32 17 32 17 C32 18.32 32 19.64 32 21 C31.34 21 30.68 21 30 21 C30 22.32 30 23.64 30 25 C19.11 25 8.22 25 -3 25 C-3 23.68 -3 22.36 -3 21 C-2.01 21 -1.02 21 0 21 C0 19.68 0 18.36 0 17 C-0.99 17 -1.98 17 -3 17 C-3 15.68 -3 14.36 -3 13 C-2.01 13 -1.02 13 0 13 C0 11.35 0 9.7 0 8 C-0.99 8 -1.98 8 -3 8 C-2.67 6.68 -2.34 5.36 -2 4 C-1.34 4 -0.68 4 0 4 C0 2.68 0 1.36 0 0 Z " fill="#F5F5F5" transform="translate(187,76)"/>
<path d="M0 0 C9.9 0 19.8 0 30 0 C30 8.25 30 16.5 30 25 C19.11 25 8.22 25 -3 25 C-3 23.68 -3 22.36 -3 21 C-4.32 21 -5.64 21 -7 21 C-7 19.68 -7 18.36 -7 17 C-6.01 17 -5.02 17 -4 17 C-4 15.68 -4 14.36 -4 13 C-2.68 13 -1.36 13 0 13 C0 8.71 0 4.42 0 0 Z " fill="#F7F7F7" transform="translate(947,160)"/>
<path d="M0 0 C9.9 0 19.8 0 30 0 C30 8.25 30 16.5 30 25 C19.11 25 8.22 25 -3 25 C-3 23.68 -3 22.36 -3 21 C-4.32 21 -5.64 21 -7 21 C-7 19.68 -7 18.36 -7 17 C-6.01 17 -5.02 17 -4 17 C-4 15.68 -4 14.36 -4 13 C-2.68 13 -1.36 13 0 13 C0 8.71 0 4.42 0 0 Z " fill="#F7F7F7" transform="translate(861,160)"/>
<path d="M0 0 C9.9 0 19.8 0 30 0 C30 8.25 30 16.5 30 25 C19.11 25 8.22 25 -3 25 C-3 23.68 -3 22.36 -3 21 C-4.32 21 -5.64 21 -7 21 C-7 19.68 -7 18.36 -7 17 C-6.01 17 -5.02 17 -4 17 C-4 15.68 -4 14.36 -4 13 C-2.68 13 -1.36 13 0 13 C0 8.71 0 4.42 0 0 Z " fill="#F7F7F7" transform="translate(775,160)"/>
<path d="M0 0 C9.9 0 19.8 0 30 0 C30 8.25 30 16.5 30 25 C19.11 25 8.22 25 -3 25 C-3 23.68 -3 22.36 -3 21 C-4.32 21 -5.64 21 -7 21 C-7 19.68 -7 18.36 -7 17 C-6.01 17 -5.02 17 -4 17 C-4 15.68 -4 14.36 -4 13 C-2.68 13 -1.36 13 0 13 C0 8.71 0 4.42 0 0 Z " fill="#F7F7F7" transform="translate(689,160)"/>
<path d="M0 0 C9.9 0 19.8 0 30 0 C30 8.25 30 16.5 30 25 C19.11 25 8.22 25 -3 25 C-3 23.68 -3 22.36 -3 21 C-4.32 21 -5.64 21 -7 21 C-7 19.68 -7 18.36 -7 17 C-6.01 17 -5.02 17 -4 17 C-4 15.68 -4 14.36 -4 13 C-2.68 13 -1.36 13 0 13 C0 8.71 0 4.42 0 0 Z " fill="#F7F7F7" transform="translate(474,160)"/>
<path d="M0 0 C9.9 0 19.8 0 30 0 C30 8.25 30 16.5 30 25 C19.11 25 8.22 25 -3 25 C-3 23.68 -3 22.36 -3 21 C-4.32 21 -5.64 21 -7 21 C-7 19.68 -7 18.36 -7 17 C-6.01 17 -5.02 17 -4 17 C-4 15.68 -4 14.36 -4 13 C-2.68 13 -1.36 13 0 13 C0 8.71 0 4.42 0 0 Z " fill="#F7F7F7" transform="translate(474,132)"/>
<path d="M0 0 C9.9 0 19.8 0 30 0 C30 8.25 30 16.5 30 25 C19.11 25 8.22 25 -3 25 C-3 23.68 -3 22.36 -3 21 C-4.32 21 -5.64 21 -7 21 C-7 19.68 -7 18.36 -7 17 C-6.01 17 -5.02 17 -4 17 C-4 15.68 -4 14.36 -4 13 C-2.68 13 -1.36 13 0 13 C0 8.71 0 4.42 0 0 Z " fill="#F7F7F7" transform="translate(474,104)"/>
<path d="M0 0 C9.9 0 19.8 0 30 0 C30 8.25 30 16.5 30 25 C19.11 25 8.22 25 -3 25 C-3 23.68 -3 22.36 -3 21 C-4.32 21 -5.64 21 -7 21 C-7 19.68 -7 18.36 -7 17 C-6.01 17 -5.02 17 -4 17 C-4 15.68 -4 14.36 -4 13 C-2.68 13 -1.36 13 0 13 C0 8.71 0 4.42 0 0 Z " fill="#F7F7F7" transform="translate(947,48)"/>
<path d="M0 0 C9.9 0 19.8 0 30 0 C30 8.25 30 16.5 30 25 C19.11 25 8.22 25 -3 25 C-3 23.68 -3 22.36 -3 21 C-4.32 21 -5.64 21 -7 21 C-7 19.68 -7 18.36 -7 17 C-6.01 17 -5.02 17 -4 17 C-4 15.68 -4 14.36 -4 13 C-2.68 13 -1.36 13 0 13 C0 8.71 0 4.42 0 0 Z " fill="#F7F7F7" transform="translate(861,48)"/>
<path d="M0 0 C9.9 0 19.8 0 30 0 C30 8.25 30 16.5 30 25 C19.11 25 8.22 25 -3 25 C-3 23.68 -3 22.36 -3 21 C-4.32 21 -5.64 21 -7 21 C-7 19.68 -7 18.36 -7 17 C-6.01 17 -5.02 17 -4 17 C-4 15.68 -4 14.36 -4 13 C-2.68 13 -1.36 13 0 13 C0 8.71 0 4.42 0 0 Z " fill="#F7F7F7" transform="translate(775,48)"/>
<path d="M0 0 C9.9 0 19.8 0 30 0 C30 8.25 30 16.5 30 25 C19.11 25 8.22 25 -3 25 C-3 23.68 -3 22.36 -3 21 C-4.32 21 -5.64 21 -7 21 C-7 19.68 -7 18.36 -7 17 C-6.01 17 -5.02 17 -4 17 C-4 15.68 -4 14.36 -4 13 C-2.68 13 -1.36 13 0 13 C0 8.71 0 4.42 0 0 Z " fill="#F7F7F7" transform="translate(689,48)"/>
<path d="M0 0 C9.9 0 19.8 0 30 0 C30 8.25 30 16.5 30 25 C19.11 25 8.22 25 -3 25 C-3 23.68 -3 22.36 -3 21 C-2.34 21 -1.68 21 -1 21 C-1 19.68 -1 18.36 -1 17 C-1.99 17 -2.98 17 -4 17 C-4 15.68 -4 14.36 -4 13 C-3.01 13 -2.02 13 -1 13 C-1 11.35 -1 9.7 -1 8 C-1.66 8 -2.32 8 -3 8 C-3 6.68 -3 5.36 -3 4 C-2.34 4 -1.68 4 -1 4 C-0.67 2.68 -0.34 1.36 0 0 Z " fill="#F3F3F3" transform="translate(30,188)"/>
<path d="M0 0 C9.9 0 19.8 0 30 0 C30 8.25 30 16.5 30 25 C19.11 25 8.22 25 -3 25 C-3 23.68 -3 22.36 -3 21 C-2.34 21 -1.68 21 -1 21 C-1 19.68 -1 18.36 -1 17 C-1.99 17 -2.98 17 -4 17 C-4 15.68 -4 14.36 -4 13 C-3.01 13 -2.02 13 -1 13 C-1 11.35 -1 9.7 -1 8 C-1.66 8 -2.32 8 -3 8 C-3 6.68 -3 5.36 -3 4 C-2.34 4 -1.68 4 -1 4 C-0.67 2.68 -0.34 1.36 0 0 Z " fill="#F3F3F3" transform="translate(417,160)"/>
<path d="M0 0 C9.9 0 19.8 0 30 0 C30 8.25 30 16.5 30 25 C19.11 25 8.22 25 -3 25 C-3 23.68 -3 22.36 -3 21 C-2.34 21 -1.68 21 -1 21 C-1 19.68 -1 18.36 -1 17 C-1.99 17 -2.98 17 -4 17 C-4 15.68 -4 14.36 -4 13 C-3.01 13 -2.02 13 -1 13 C-1 11.35 -1 9.7 -1 8 C-1.66 8 -2.32 8 -3 8 C-3 6.68 -3 5.36 -3 4 C-2.34 4 -1.68 4 -1 4 C-0.67 2.68 -0.34 1.36 0 0 Z " fill="#F3F3F3" transform="translate(30,160)"/>
<path d="M0 0 C9.9 0 19.8 0 30 0 C30 8.25 30 16.5 30 25 C19.11 25 8.22 25 -3 25 C-3 23.68 -3 22.36 -3 21 C-2.34 21 -1.68 21 -1 21 C-1 19.68 -1 18.36 -1 17 C-1.99 17 -2.98 17 -4 17 C-4 15.68 -4 14.36 -4 13 C-3.01 13 -2.02 13 -1 13 C-1 11.35 -1 9.7 -1 8 C-1.66 8 -2.32 8 -3 8 C-3 6.68 -3 5.36 -3 4 C-2.34 4 -1.68 4 -1 4 C-0.67 2.68 -0.34 1.36 0 0 Z " fill="#F3F3F3" transform="translate(675,132)"/>
<path d="M0 0 C9.9 0 19.8 0 30 0 C30 8.25 30 16.5 30 25 C19.11 25 8.22 25 -3 25 C-3 23.68 -3 22.36 -3 21 C-2.34 21 -1.68 21 -1 21 C-1 19.68 -1 18.36 -1 17 C-1.99 17 -2.98 17 -4 17 C-4 15.68 -4 14.36 -4 13 C-3.01 13 -2.02 13 -1 13 C-1 11.35 -1 9.7 -1 8 C-1.66 8 -2.32 8 -3 8 C-3 6.68 -3 5.36 -3 4 C-2.34 4 -1.68 4 -1 4 C-0.67 2.68 -0.34 1.36 0 0 Z " fill="#F3F3F3" transform="translate(417,132)"/>
<path d="M0 0 C9.9 0 19.8 0 30 0 C30 8.25 30 16.5 30 25 C19.11 25 8.22 25 -3 25 C-3 23.68 -3 22.36 -3 21 C-2.34 21 -1.68 21 -1 21 C-1 19.68 -1 18.36 -1 17 C-1.99 17 -2.98 17 -4 17 C-4 15.68 -4 14.36 -4 13 C-3.01 13 -2.02 13 -1 13 C-1 11.35 -1 9.7 -1 8 C-1.66 8 -2.32 8 -3 8 C-3 6.68 -3 5.36 -3 4 C-2.34 4 -1.68 4 -1 4 C-0.67 2.68 -0.34 1.36 0 0 Z " fill="#F3F3F3" transform="translate(30,132)"/>
<path d="M0 0 C9.9 0 19.8 0 30 0 C30 8.25 30 16.5 30 25 C19.11 25 8.22 25 -3 25 C-3 23.68 -3 22.36 -3 21 C-2.34 21 -1.68 21 -1 21 C-1 19.68 -1 18.36 -1 17 C-1.99 17 -2.98 17 -4 17 C-4 15.68 -4 14.36 -4 13 C-3.01 13 -2.02 13 -1 13 C-1 11.35 -1 9.7 -1 8 C-1.66 8 -2.32 8 -3 8 C-3 6.68 -3 5.36 -3 4 C-2.34 4 -1.68 4 -1 4 C-0.67 2.68 -0.34 1.36 0 0 Z " fill="#F3F3F3" transform="translate(675,104)"/>
<path d="M0 0 C9.9 0 19.8 0 30 0 C30 8.25 30 16.5 30 25 C19.11 25 8.22 25 -3 25 C-3 23.68 -3 22.36 -3 21 C-2.34 21 -1.68 21 -1 21 C-1 19.68 -1 18.36 -1 17 C-1.99 17 -2.98 17 -4 17 C-4 15.68 -4 14.36 -4 13 C-3.01 13 -2.02 13 -1 13 C-1 11.35 -1 9.7 -1 8 C-1.66 8 -2.32 8 -3 8 C-3 6.68 -3 5.36 -3 4 C-2.34 4 -1.68 4 -1 4 C-0.67 2.68 -0.34 1.36 0 0 Z " fill="#F3F3F3" transform="translate(417,104)"/>
<path d="M0 0 C9.9 0 19.8 0 30 0 C30 8.25 30 16.5 30 25 C19.11 25 8.22 25 -3 25 C-3 23.68 -3 22.36 -3 21 C-2.34 21 -1.68 21 -1 21 C-1 19.68 -1 18.36 -1 17 C-1.99 17 -2.98 17 -4 17 C-4 15.68 -4 14.36 -4 13 C-3.01 13 -2.02 13 -1 13 C-1 11.35 -1 9.7 -1 8 C-1.66 8 -2.32 8 -3 8 C-3 6.68 -3 5.36 -3 4 C-2.34 4 -1.68 4 -1 4 C-0.67 2.68 -0.34 1.36 0 0 Z " fill="#F3F3F3" transform="translate(847,76)"/>
<path d="M0 0 C9.9 0 19.8 0 30 0 C30 8.25 30 16.5 30 25 C19.11 25 8.22 25 -3 25 C-3 23.68 -3 22.36 -3 21 C-2.34 21 -1.68 21 -1 21 C-1 19.68 -1 18.36 -1 17 C-1.99 17 -2.98 17 -4 17 C-4 15.68 -4 14.36 -4 13 C-3.01 13 -2.02 13 -1 13 C-1 11.35 -1 9.7 -1 8 C-1.66 8 -2.32 8 -3 8 C-3 6.68 -3 5.36 -3 4 C-2.34 4 -1.68 4 -1 4 C-0.67 2.68 -0.34 1.36 0 0 Z " fill="#F3F3F3" transform="translate(675,76)"/>
<path d="M0 0 C9.9 0 19.8 0 30 0 C30 8.25 30 16.5 30 25 C19.11 25 8.22 25 -3 25 C-3 23.68 -3 22.36 -3 21 C-2.34 21 -1.68 21 -1 21 C-1 19.68 -1 18.36 -1 17 C-1.99 17 -2.98 17 -4 17 C-4 15.68 -4 14.36 -4 13 C-3.01 13 -2.02 13 -1 13 C-1 11.35 -1 9.7 -1 8 C-1.66 8 -2.32 8 -3 8 C-3 6.68 -3 5.36 -3 4 C-2.34 4 -1.68 4 -1 4 C-0.67 2.68 -0.34 1.36 0 0 Z " fill="#F3F3F3" transform="translate(30,76)"/>
<path d="M0 0 C9.9 0 19.8 0 30 0 C30 8.25 30 16.5 30 25 C19.11 25 8.22 25 -3 25 C-3 23.68 -3 22.36 -3 21 C-2.34 21 -1.68 21 -1 21 C-1 19.68 -1 18.36 -1 17 C-1.99 17 -2.98 17 -4 17 C-4 15.68 -4 14.36 -4 13 C-3.01 13 -2.02 13 -1 13 C-1 11.35 -1 9.7 -1 8 C-1.66 8 -2.32 8 -3 8 C-3 6.68 -3 5.36 -3 4 C-2.34 4 -1.68 4 -1 4 C-0.67 2.68 -0.34 1.36 0 0 Z " fill="#F3F3F3" transform="translate(30,48)"/>
<path d="M0 0 C9.9 0 19.8 0 30 0 C30 8.25 30 16.5 30 25 C19.11 25 8.22 25 -3 25 C-3 23.68 -3 22.36 -3 21 C-2.01 21 -1.02 21 0 21 C0 19.68 0 18.36 0 17 C-0.99 17 -1.98 17 -3 17 C-3 15.68 -3 14.36 -3 13 C-2.01 13 -1.02 13 0 13 C0 11.35 0 9.7 0 8 C-0.99 8 -1.98 8 -3 8 C-2.67 6.68 -2.34 5.36 -2 4 C-1.34 4 -0.68 4 0 4 C0 2.68 0 1.36 0 0 Z " fill="#F6F6F6" transform="translate(574,217)"/>
<path d="M0 0 C9.9 0 19.8 0 30 0 C30 8.25 30 16.5 30 25 C19.11 25 8.22 25 -3 25 C-3 23.68 -3 22.36 -3 21 C-2.01 21 -1.02 21 0 21 C0 19.68 0 18.36 0 17 C-0.99 17 -1.98 17 -3 17 C-3 15.68 -3 14.36 -3 13 C-2.01 13 -1.02 13 0 13 C0 11.35 0 9.7 0 8 C-0.99 8 -1.98 8 -3 8 C-2.67 6.68 -2.34 5.36 -2 4 C-1.34 4 -0.68 4 0 4 C0 2.68 0 1.36 0 0 Z " fill="#F6F6F6" transform="translate(574,188)"/>
<path d="M0 0 C9.9 0 19.8 0 30 0 C30 8.25 30 16.5 30 25 C19.11 25 8.22 25 -3 25 C-3 23.68 -3 22.36 -3 21 C-2.01 21 -1.02 21 0 21 C0 19.68 0 18.36 0 17 C-0.99 17 -1.98 17 -3 17 C-3 15.68 -3 14.36 -3 13 C-2.01 13 -1.02 13 0 13 C0 11.35 0 9.7 0 8 C-0.99 8 -1.98 8 -3 8 C-2.67 6.68 -2.34 5.36 -2 4 C-1.34 4 -0.68 4 0 4 C0 2.68 0 1.36 0 0 Z " fill="#F6F6F6" transform="translate(187,188)"/>
<path d="M0 0 C9.9 0 19.8 0 30 0 C30 8.25 30 16.5 30 25 C19.11 25 8.22 25 -3 25 C-3 23.68 -3 22.36 -3 21 C-2.01 21 -1.02 21 0 21 C0 19.68 0 18.36 0 17 C-0.99 17 -1.98 17 -3 17 C-3 15.68 -3 14.36 -3 13 C-2.01 13 -1.02 13 0 13 C0 11.35 0 9.7 0 8 C-0.99 8 -1.98 8 -3 8 C-2.67 6.68 -2.34 5.36 -2 4 C-1.34 4 -0.68 4 0 4 C0 2.68 0 1.36 0 0 Z " fill="#F6F6F6" transform="translate(316,160)"/>
<path d="M0 0 C9.9 0 19.8 0 30 0 C30 8.25 30 16.5 30 25 C19.11 25 8.22 25 -3 25 C-3 23.68 -3 22.36 -3 21 C-2.01 21 -1.02 21 0 21 C0 19.68 0 18.36 0 17 C-0.99 17 -1.98 17 -3 17 C-3 15.68 -3 14.36 -3 13 C-2.01 13 -1.02 13 0 13 C0 11.35 0 9.7 0 8 C-0.99 8 -1.98 8 -3 8 C-2.67 6.68 -2.34 5.36 -2 4 C-1.34 4 -0.68 4 0 4 C0 2.68 0 1.36 0 0 Z " fill="#F6F6F6" transform="translate(187,160)"/>
<path d="M0 0 C9.9 0 19.8 0 30 0 C30 8.25 30 16.5 30 25 C19.11 25 8.22 25 -3 25 C-3 23.68 -3 22.36 -3 21 C-2.01 21 -1.02 21 0 21 C0 19.68 0 18.36 0 17 C-0.99 17 -1.98 17 -3 17 C-3 15.68 -3 14.36 -3 13 C-2.01 13 -1.02 13 0 13 C0 11.35 0 9.7 0 8 C-0.99 8 -1.98 8 -3 8 C-2.67 6.68 -2.34 5.36 -2 4 C-1.34 4 -0.68 4 0 4 C0 2.68 0 1.36 0 0 Z " fill="#F6F6F6" transform="translate(961,132)"/>
<path d="M0 0 C9.9 0 19.8 0 30 0 C30 8.25 30 16.5 30 25 C19.11 25 8.22 25 -3 25 C-3 23.68 -3 22.36 -3 21 C-2.01 21 -1.02 21 0 21 C0 19.68 0 18.36 0 17 C-0.99 17 -1.98 17 -3 17 C-3 15.68 -3 14.36 -3 13 C-2.01 13 -1.02 13 0 13 C0 11.35 0 9.7 0 8 C-0.99 8 -1.98 8 -3 8 C-2.67 6.68 -2.34 5.36 -2 4 C-1.34 4 -0.68 4 0 4 C0 2.68 0 1.36 0 0 Z " fill="#F6F6F6" transform="translate(789,132)"/>
<path d="M0 0 C9.9 0 19.8 0 30 0 C30 8.25 30 16.5 30 25 C19.11 25 8.22 25 -3 25 C-3 23.68 -3 22.36 -3 21 C-2.01 21 -1.02 21 0 21 C0 19.68 0 18.36 0 17 C-0.99 17 -1.98 17 -3 17 C-3 15.68 -3 14.36 -3 13 C-2.01 13 -1.02 13 0 13 C0 11.35 0 9.7 0 8 C-0.99 8 -1.98 8 -3 8 C-2.67 6.68 -2.34 5.36 -2 4 C-1.34 4 -0.68 4 0 4 C0 2.68 0 1.36 0 0 Z " fill="#F6F6F6" transform="translate(574,132)"/>
<path d="M0 0 C9.9 0 19.8 0 30 0 C30 8.25 30 16.5 30 25 C19.11 25 8.22 25 -3 25 C-3 23.68 -3 22.36 -3 21 C-2.01 21 -1.02 21 0 21 C0 19.68 0 18.36 0 17 C-0.99 17 -1.98 17 -3 17 C-3 15.68 -3 14.36 -3 13 C-2.01 13 -1.02 13 0 13 C0 11.35 0 9.7 0 8 C-0.99 8 -1.98 8 -3 8 C-2.67 6.68 -2.34 5.36 -2 4 C-1.34 4 -0.68 4 0 4 C0 2.68 0 1.36 0 0 Z " fill="#F6F6F6" transform="translate(316,132)"/>
<path d="M0 0 C9.9 0 19.8 0 30 0 C30 8.25 30 16.5 30 25 C19.11 25 8.22 25 -3 25 C-3 23.68 -3 22.36 -3 21 C-2.01 21 -1.02 21 0 21 C0 19.68 0 18.36 0 17 C-0.99 17 -1.98 17 -3 17 C-3 15.68 -3 14.36 -3 13 C-2.01 13 -1.02 13 0 13 C0 11.35 0 9.7 0 8 C-0.99 8 -1.98 8 -3 8 C-2.67 6.68 -2.34 5.36 -2 4 C-1.34 4 -0.68 4 0 4 C0 2.68 0 1.36 0 0 Z " fill="#F6F6F6" transform="translate(187,132)"/>
<path d="M0 0 C9.9 0 19.8 0 30 0 C30 8.25 30 16.5 30 25 C19.11 25 8.22 25 -3 25 C-3 23.68 -3 22.36 -3 21 C-2.01 21 -1.02 21 0 21 C0 19.68 0 18.36 0 17 C-0.99 17 -1.98 17 -3 17 C-3 15.68 -3 14.36 -3 13 C-2.01 13 -1.02 13 0 13 C0 11.35 0 9.7 0 8 C-0.99 8 -1.98 8 -3 8 C-2.67 6.68 -2.34 5.36 -2 4 C-1.34 4 -0.68 4 0 4 C0 2.68 0 1.36 0 0 Z " fill="#F6F6F6" transform="translate(789,104)"/>
<path d="M0 0 C9.9 0 19.8 0 30 0 C30 8.25 30 16.5 30 25 C19.11 25 8.22 25 -3 25 C-3 23.68 -3 22.36 -3 21 C-2.01 21 -1.02 21 0 21 C0 19.68 0 18.36 0 17 C-0.99 17 -1.98 17 -3 17 C-3 15.68 -3 14.36 -3 13 C-2.01 13 -1.02 13 0 13 C0 11.35 0 9.7 0 8 C-0.99 8 -1.98 8 -3 8 C-2.67 6.68 -2.34 5.36 -2 4 C-1.34 4 -0.68 4 0 4 C0 2.68 0 1.36 0 0 Z " fill="#F6F6F6" transform="translate(574,104)"/>
<path d="M0 0 C9.9 0 19.8 0 30 0 C30 8.25 30 16.5 30 25 C19.11 25 8.22 25 -3 25 C-3 23.68 -3 22.36 -3 21 C-2.01 21 -1.02 21 0 21 C0 19.68 0 18.36 0 17 C-0.99 17 -1.98 17 -3 17 C-3 15.68 -3 14.36 -3 13 C-2.01 13 -1.02 13 0 13 C0 11.35 0 9.7 0 8 C-0.99 8 -1.98 8 -3 8 C-2.67 6.68 -2.34 5.36 -2 4 C-1.34 4 -0.68 4 0 4 C0 2.68 0 1.36 0 0 Z " fill="#F6F6F6" transform="translate(316,104)"/>
<path d="M0 0 C9.9 0 19.8 0 30 0 C30 8.25 30 16.5 30 25 C19.11 25 8.22 25 -3 25 C-3 23.68 -3 22.36 -3 21 C-2.01 21 -1.02 21 0 21 C0 19.68 0 18.36 0 17 C-0.99 17 -1.98 17 -3 17 C-3 15.68 -3 14.36 -3 13 C-2.01 13 -1.02 13 0 13 C0 11.35 0 9.7 0 8 C-0.99 8 -1.98 8 -3 8 C-2.67 6.68 -2.34 5.36 -2 4 C-1.34 4 -0.68 4 0 4 C0 2.68 0 1.36 0 0 Z " fill="#F6F6F6" transform="translate(789,76)"/>
<path d="M0 0 C9.9 0 19.8 0 30 0 C30 8.25 30 16.5 30 25 C29.67 25 29.34 25 29 25 C29 17.08 29 9.16 29 1 C19.76 1 10.52 1 1 1 C1 8.92 1 16.84 1 25 C-0.32 25 -1.64 25 -3 25 C-3 23.68 -3 22.36 -3 21 C-4.32 21 -5.64 21 -7 21 C-7 19.68 -7 18.36 -7 17 C-6.01 17 -5.02 17 -4 17 C-4 15.68 -4 14.36 -4 13 C-2.68 13 -1.36 13 0 13 C0 8.71 0 4.42 0 0 Z " fill="#D0D0D0" transform="translate(947,160)"/>
<path d="M0 0 C9.9 0 19.8 0 30 0 C30 8.25 30 16.5 30 25 C29.67 25 29.34 25 29 25 C29 17.08 29 9.16 29 1 C19.76 1 10.52 1 1 1 C1 8.92 1 16.84 1 25 C-0.32 25 -1.64 25 -3 25 C-3 23.68 -3 22.36 -3 21 C-4.32 21 -5.64 21 -7 21 C-7 19.68 -7 18.36 -7 17 C-6.01 17 -5.02 17 -4 17 C-4 15.68 -4 14.36 -4 13 C-2.68 13 -1.36 13 0 13 C0 8.71 0 4.42 0 0 Z " fill="#D0D0D0" transform="translate(861,160)"/>
<path d="M0 0 C9.9 0 19.8 0 30 0 C30 8.25 30 16.5 30 25 C29.67 25 29.34 25 29 25 C29 17.08 29 9.16 29 1 C19.76 1 10.52 1 1 1 C1 8.92 1 16.84 1 25 C-0.32 25 -1.64 25 -3 25 C-3 23.68 -3 22.36 -3 21 C-4.32 21 -5.64 21 -7 21 C-7 19.68 -7 18.36 -7 17 C-6.01 17 -5.02 17 -4 17 C-4 15.68 -4 14.36 -4 13 C-2.68 13 -1.36 13 0 13 C0 8.71 0 4.42 0 0 Z " fill="#D0D0D0" transform="translate(775,160)"/>
<path d="M0 0 C9.9 0 19.8 0 30 0 C30 8.25 30 16.5 30 25 C29.67 25 29.34 25 29 25 C29 17.08 29 9.16 29 1 C19.76 1 10.52 1 1 1 C1 8.92 1 16.84 1 25 C-0.32 25 -1.64 25 -3 25 C-3 23.68 -3 22.36 -3 21 C-4.32 21 -5.64 21 -7 21 C-7 19.68 -7 18.36 -7 17 C-6.01 17 -5.02 17 -4 17 C-4 15.68 -4 14.36 -4 13 C-2.68 13 -1.36 13 0 13 C0 8.71 0 4.42 0 0 Z " fill="#D0D0D0" transform="translate(689,160)"/>
<path d="M0 0 C9.9 0 19.8 0 30 0 C30 8.25 30 16.5 30 25 C29.67 25 29.34 25 29 25 C29 17.08 29 9.16 29 1 C19.76 1 10.52 1 1 1 C1 8.92 1 16.84 1 25 C-0.32 25 -1.64 25 -3 25 C-3 23.68 -3 22.36 -3 21 C-4.32 21 -5.64 21 -7 21 C-7 19.68 -7 18.36 -7 17 C-6.01 17 -5.02 17 -4 17 C-4 15.68 -4 14.36 -4 13 C-2.68 13 -1.36 13 0 13 C0 8.71 0 4.42 0 0 Z " fill="#D0D0D0" transform="translate(474,160)"/>
<path d="M0 0 C9.9 0 19.8 0 30 0 C30 8.25 30 16.5 30 25 C29.67 25 29.34 25 29 25 C29 17.08 29 9.16 29 1 C19.76 1 10.52 1 1 1 C1 8.92 1 16.84 1 25 C-0.32 25 -1.64 25 -3 25 C-3 23.68 -3 22.36 -3 21 C-4.32 21 -5.64 21 -7 21 C-7 19.68 -7 18.36 -7 17 C-6.01 17 -5.02 17 -4 17 C-4 15.68 -4 14.36 -4 13 C-2.68 13 -1.36 13 0 13 C0 8.71 0 4.42 0 0 Z " fill="#D0D0D0" transform="translate(474,132)"/>
<path d="M0 0 C9.9 0 19.8 0 30 0 C30 8.25 30 16.5 30 25 C29.67 25 29.34 25 29 25 C29 17.08 29 9.16 29 1 C19.76 1 10.52 1 1 1 C1 8.92 1 16.84 1 25 C-0.32 25 -1.64 25 -3 25 C-3 23.68 -3 22.36 -3 21 C-4.32 21 -5.64 21 -7 21 C-7 19.68 -7 18.36 -7 17 C-6.01 17 -5.02 17 -4 17 C-4 15.68 -4 14.36 -4 13 C-2.68 13 -1.36 13 0 13 C0 8.71 0 4.42 0 0 Z " fill="#D0D0D0" transform="translate(474,104)"/>
<path d="M0 0 C9.9 0 19.8 0 30 0 C30 8.25 30 16.5 30 25 C29.67 25 29.34 25 29 25 C29 17.08 29 9.16 29 1 C19.76 1 10.52 1 1 1 C1 8.92 1 16.84 1 25 C-0.32 25 -1.64 25 -3 25 C-3 23.68 -3 22.36 -3 21 C-4.32 21 -5.64 21 -7 21 C-7 19.68 -7 18.36 -7 17 C-6.01 17 -5.02 17 -4 17 C-4 15.68 -4 14.36 -4 13 C-2.68 13 -1.36 13 0 13 C0 8.71 0 4.42 0 0 Z " fill="#D0D0D0" transform="translate(947,48)"/>
<path d="M0 0 C9.9 0 19.8 0 30 0 C30 8.25 30 16.5 30 25 C29.67 25 29.34 25 29 25 C29 17.08 29 9.16 29 1 C19.76 1 10.52 1 1 1 C1 8.92 1 16.84 1 25 C-0.32 25 -1.64 25 -3 25 C-3 23.68 -3 22.36 -3 21 C-4.32 21 -5.64 21 -7 21 C-7 19.68 -7 18.36 -7 17 C-6.01 17 -5.02 17 -4 17 C-4 15.68 -4 14.36 -4 13 C-2.68 13 -1.36 13 0 13 C0 8.71 0 4.42 0 0 Z " fill="#D0D0D0" transform="translate(861,48)"/>
<path d="M0 0 C9.9 0 19.8 0 30 0 C30 8.25 30 16.5 30 25 C29.67 25 29.34 25 29 25 C29 17.08 29 9.16 29 1 C19.76 1 10.52 1 1 1 C1 8.92 1 16.84 1 25 C-0.32 25 -1.64 25 -3 25 C-3 23.68 -3 22.36 -3 21 C-4.32 21 -5.64 21 -7 21 C-7 19.68 -7 18.36 -7 17 C-6.01 17 -5.02 17 -4 17 C-4 15.68 -4 14.36 -4 13 C-2.68 13 -1.36 13 0 13 C0 8.71 0 4.42 0 0 Z " fill="#D0D0D0" transform="translate(775,48)"/>
<path d="M0 0 C9.9 0 19.8 0 30 0 C30 8.25 30 16.5 30 25 C29.67 25 29.34 25 29 25 C29 17.08 29 9.16 29 1 C19.76 1 10.52 1 1 1 C1 8.92 1 16.84 1 25 C-0.32 25 -1.64 25 -3 25 C-3 23.68 -3 22.36 -3 21 C-4.32 21 -5.64 21 -7 21 C-7 19.68 -7 18.36 -7 17 C-6.01 17 -5.02 17 -4 17 C-4 15.68 -4 14.36 -4 13 C-2.68 13 -1.36 13 0 13 C0 8.71 0 4.42 0 0 Z " fill="#D0D0D0" transform="translate(689,48)"/>
<path d="M0 0 C4.95 0 9.9 0 15 0 C15 0.33 15 0.66 15 1 C10.38 1 5.76 1 1 1 C1 8.92 1 16.84 1 25 C-0.32 25 -1.64 25 -3 25 C-3 23.68 -3 22.36 -3 21 C-2.01 21 -1.02 21 0 21 C0 19.68 0 18.36 0 17 C-0.99 17 -1.98 17 -3 17 C-3 15.68 -3 14.36 -3 13 C-2.01 13 -1.02 13 0 13 C0 11.35 0 9.7 0 8 C-0.99 8 -1.98 8 -3 8 C-2.67 6.68 -2.34 5.36 -2 4 C-1.34 4 -0.68 4 0 4 C0 2.68 0 1.36 0 0 Z " fill="#AEAEAE" transform="translate(488,245)"/>
<path d="M0 0 C4.95 0 9.9 0 15 0 C15 0.33 15 0.66 15 1 C10.38 1 5.76 1 1 1 C1 8.92 1 16.84 1 25 C-0.32 25 -1.64 25 -3 25 C-3 23.68 -3 22.36 -3 21 C-2.01 21 -1.02 21 0 21 C0 19.68 0 18.36 0 17 C-0.99 17 -1.98 17 -3 17 C-3 15.68 -3 14.36 -3 13 C-2.01 13 -1.02 13 0 13 C0 11.35 0 9.7 0 8 C-0.99 8 -1.98 8 -3 8 C-2.67 6.68 -2.34 5.36 -2 4 C-1.34 4 -0.68 4 0 4 C0 2.68 0 1.36 0 0 Z " fill="#AEAEAE" transform="translate(574,217)"/>
<path d="M0 0 C4.95 0 9.9 0 15 0 C15 0.33 15 0.66 15 1 C10.38 1 5.76 1 1 1 C1 8.92 1 16.84 1 25 C-0.32 25 -1.64 25 -3 25 C-3 23.68 -3 22.36 -3 21 C-2.01 21 -1.02 21 0 21 C0 19.68 0 18.36 0 17 C-0.99 17 -1.98 17 -3 17 C-3 15.68 -3 14.36 -3 13 C-2.01 13 -1.02 13 0 13 C0 11.35 0 9.7 0 8 C-0.99 8 -1.98 8 -3 8 C-2.67 6.68 -2.34 5.36 -2 4 C-1.34 4 -0.68 4 0 4 C0 2.68 0 1.36 0 0 Z " fill="#AEAEAE" transform="translate(875,188)"/>
<path d="M0 0 C4.95 0 9.9 0 15 0 C15 0.33 15 0.66 15 1 C10.38 1 5.76 1 1 1 C1 8.92 1 16.84 1 25 C-0.32 25 -1.64 25 -3 25 C-3 23.68 -3 22.36 -3 21 C-2.01 21 -1.02 21 0 21 C0 19.68 0 18.36 0 17 C-0.99 17 -1.98 17 -3 17 C-3 15.68 -3 14.36 -3 13 C-2.01 13 -1.02 13 0 13 C0 11.35 0 9.7 0 8 C-0.99 8 -1.98 8 -3 8 C-2.67 6.68 -2.34 5.36 -2 4 C-1.34 4 -0.68 4 0 4 C0 2.68 0 1.36 0 0 Z " fill="#AEAEAE" transform="translate(703,188)"/>
<path d="M0 0 C4.95 0 9.9 0 15 0 C15 0.33 15 0.66 15 1 C10.38 1 5.76 1 1 1 C1 8.92 1 16.84 1 25 C-0.32 25 -1.64 25 -3 25 C-3 23.68 -3 22.36 -3 21 C-2.01 21 -1.02 21 0 21 C0 19.68 0 18.36 0 17 C-0.99 17 -1.98 17 -3 17 C-3 15.68 -3 14.36 -3 13 C-2.01 13 -1.02 13 0 13 C0 11.35 0 9.7 0 8 C-0.99 8 -1.98 8 -3 8 C-2.67 6.68 -2.34 5.36 -2 4 C-1.34 4 -0.68 4 0 4 C0 2.68 0 1.36 0 0 Z " fill="#AEAEAE" transform="translate(574,188)"/>
<path d="M0 0 C4.95 0 9.9 0 15 0 C15 0.33 15 0.66 15 1 C10.38 1 5.76 1 1 1 C1 8.92 1 16.84 1 25 C-0.32 25 -1.64 25 -3 25 C-3 23.68 -3 22.36 -3 21 C-2.01 21 -1.02 21 0 21 C0 19.68 0 18.36 0 17 C-0.99 17 -1.98 17 -3 17 C-3 15.68 -3 14.36 -3 13 C-2.01 13 -1.02 13 0 13 C0 11.35 0 9.7 0 8 C-0.99 8 -1.98 8 -3 8 C-2.67 6.68 -2.34 5.36 -2 4 C-1.34 4 -0.68 4 0 4 C0 2.68 0 1.36 0 0 Z " fill="#AEAEAE" transform="translate(488,188)"/>
<path d="M0 0 C4.95 0 9.9 0 15 0 C15 0.33 15 0.66 15 1 C10.38 1 5.76 1 1 1 C1 8.92 1 16.84 1 25 C-0.32 25 -1.64 25 -3 25 C-3 23.68 -3 22.36 -3 21 C-2.01 21 -1.02 21 0 21 C0 19.68 0 18.36 0 17 C-0.99 17 -1.98 17 -3 17 C-3 15.68 -3 14.36 -3 13 C-2.01 13 -1.02 13 0 13 C0 11.35 0 9.7 0 8 C-0.99 8 -1.98 8 -3 8 C-2.67 6.68 -2.34 5.36 -2 4 C-1.34 4 -0.68 4 0 4 C0 2.68 0 1.36 0 0 Z " fill="#AEAEAE" transform="translate(187,188)"/>
<path d="M0 0 C4.95 0 9.9 0 15 0 C15 0.33 15 0.66 15 1 C10.38 1 5.76 1 1 1 C1 8.92 1 16.84 1 25 C-0.32 25 -1.64 25 -3 25 C-3 23.68 -3 22.36 -3 21 C-2.01 21 -1.02 21 0 21 C0 19.68 0 18.36 0 17 C-0.99 17 -1.98 17 -3 17 C-3 15.68 -3 14.36 -3 13 C-2.01 13 -1.02 13 0 13 C0 11.35 0 9.7 0 8 C-0.99 8 -1.98 8 -3 8 C-2.67 6.68 -2.34 5.36 -2 4 C-1.34 4 -0.68 4 0 4 C0 2.68 0 1.36 0 0 Z " fill="#AEAEAE" transform="translate(316,160)"/>
<path d="M0 0 C4.95 0 9.9 0 15 0 C15 0.33 15 0.66 15 1 C10.38 1 5.76 1 1 1 C1 8.92 1 16.84 1 25 C-0.32 25 -1.64 25 -3 25 C-3 23.68 -3 22.36 -3 21 C-2.01 21 -1.02 21 0 21 C0 19.68 0 18.36 0 17 C-0.99 17 -1.98 17 -3 17 C-3 15.68 -3 14.36 -3 13 C-2.01 13 -1.02 13 0 13 C0 11.35 0 9.7 0 8 C-0.99 8 -1.98 8 -3 8 C-2.67 6.68 -2.34 5.36 -2 4 C-1.34 4 -0.68 4 0 4 C0 2.68 0 1.36 0 0 Z " fill="#AEAEAE" transform="translate(187,160)"/>
<path d="M0 0 C4.95 0 9.9 0 15 0 C15 0.33 15 0.66 15 1 C10.38 1 5.76 1 1 1 C1 8.92 1 16.84 1 25 C-0.32 25 -1.64 25 -3 25 C-3 23.68 -3 22.36 -3 21 C-2.01 21 -1.02 21 0 21 C0 19.68 0 18.36 0 17 C-0.99 17 -1.98 17 -3 17 C-3 15.68 -3 14.36 -3 13 C-2.01 13 -1.02 13 0 13 C0 11.35 0 9.7 0 8 C-0.99 8 -1.98 8 -3 8 C-2.67 6.68 -2.34 5.36 -2 4 C-1.34 4 -0.68 4 0 4 C0 2.68 0 1.36 0 0 Z " fill="#AEAEAE" transform="translate(961,132)"/>
<path d="M0 0 C4.95 0 9.9 0 15 0 C15 0.33 15 0.66 15 1 C10.38 1 5.76 1 1 1 C1 8.92 1 16.84 1 25 C-0.32 25 -1.64 25 -3 25 C-3 23.68 -3 22.36 -3 21 C-2.01 21 -1.02 21 0 21 C0 19.68 0 18.36 0 17 C-0.99 17 -1.98 17 -3 17 C-3 15.68 -3 14.36 -3 13 C-2.01 13 -1.02 13 0 13 C0 11.35 0 9.7 0 8 C-0.99 8 -1.98 8 -3 8 C-2.67 6.68 -2.34 5.36 -2 4 C-1.34 4 -0.68 4 0 4 C0 2.68 0 1.36 0 0 Z " fill="#AEAEAE" transform="translate(789,132)"/>
<path d="M0 0 C4.95 0 9.9 0 15 0 C15 0.33 15 0.66 15 1 C10.38 1 5.76 1 1 1 C1 8.92 1 16.84 1 25 C-0.32 25 -1.64 25 -3 25 C-3 23.68 -3 22.36 -3 21 C-2.01 21 -1.02 21 0 21 C0 19.68 0 18.36 0 17 C-0.99 17 -1.98 17 -3 17 C-3 15.68 -3 14.36 -3 13 C-2.01 13 -1.02 13 0 13 C0 11.35 0 9.7 0 8 C-0.99 8 -1.98 8 -3 8 C-2.67 6.68 -2.34 5.36 -2 4 C-1.34 4 -0.68 4 0 4 C0 2.68 0 1.36 0 0 Z " fill="#AEAEAE" transform="translate(574,132)"/>
<path d="M0 0 C4.95 0 9.9 0 15 0 C15 0.33 15 0.66 15 1 C10.38 1 5.76 1 1 1 C1 8.92 1 16.84 1 25 C-0.32 25 -1.64 25 -3 25 C-3 23.68 -3 22.36 -3 21 C-2.01 21 -1.02 21 0 21 C0 19.68 0 18.36 0 17 C-0.99 17 -1.98 17 -3 17 C-3 15.68 -3 14.36 -3 13 C-2.01 13 -1.02 13 0 13 C0 11.35 0 9.7 0 8 C-0.99 8 -1.98 8 -3 8 C-2.67 6.68 -2.34 5.36 -2 4 C-1.34 4 -0.68 4 0 4 C0 2.68 0 1.36 0 0 Z " fill="#AEAEAE" transform="translate(316,132)"/>
<path d="M0 0 C4.95 0 9.9 0 15 0 C15 0.33 15 0.66 15 1 C10.38 1 5.76 1 1 1 C1 8.92 1 16.84 1 25 C-0.32 25 -1.64 25 -3 25 C-3 23.68 -3 22.36 -3 21 C-2.01 21 -1.02 21 0 21 C0 19.68 0 18.36 0 17 C-0.99 17 -1.98 17 -3 17 C-3 15.68 -3 14.36 -3 13 C-2.01 13 -1.02 13 0 13 C0 11.35 0 9.7 0 8 C-0.99 8 -1.98 8 -3 8 C-2.67 6.68 -2.34 5.36 -2 4 C-1.34 4 -0.68 4 0 4 C0 2.68 0 1.36 0 0 Z " fill="#AEAEAE" transform="translate(187,132)"/>
<path d="M0 0 C4.95 0 9.9 0 15 0 C15 0.33 15 0.66 15 1 C10.38 1 5.76 1 1 1 C1 8.92 1 16.84 1 25 C-0.32 25 -1.64 25 -3 25 C-3 23.68 -3 22.36 -3 21 C-2.01 21 -1.02 21 0 21 C0 19.68 0 18.36 0 17 C-0.99 17 -1.98 17 -3 17 C-3 15.68 -3 14.36 -3 13 C-2.01 13 -1.02 13 0 13 C0 11.35 0 9.7 0 8 C-0.99 8 -1.98 8 -3 8 C-2.67 6.68 -2.34 5.36 -2 4 C-1.34 4 -0.68 4 0 4 C0 2.68 0 1.36 0 0 Z " fill="#AEAEAE" transform="translate(789,104)"/>
<path d="M0 0 C4.95 0 9.9 0 15 0 C15 0.33 15 0.66 15 1 C10.38 1 5.76 1 1 1 C1 8.92 1 16.84 1 25 C-0.32 25 -1.64 25 -3 25 C-3 23.68 -3 22.36 -3 21 C-2.01 21 -1.02 21 0 21 C0 19.68 0 18.36 0 17 C-0.99 17 -1.98 17 -3 17 C-3 15.68 -3 14.36 -3 13 C-2.01 13 -1.02 13 0 13 C0 11.35 0 9.7 0 8 C-0.99 8 -1.98 8 -3 8 C-2.67 6.68 -2.34 5.36 -2 4 C-1.34 4 -0.68 4 0 4 C0 2.68 0 1.36 0 0 Z " fill="#AEAEAE" transform="translate(574,104)"/>
<path d="M0 0 C4.95 0 9.9 0 15 0 C15 0.33 15 0.66 15 1 C10.38 1 5.76 1 1 1 C1 8.92 1 16.84 1 25 C-0.32 25 -1.64 25 -3 25 C-3 23.68 -3 22.36 -3 21 C-2.01 21 -1.02 21 0 21 C0 19.68 0 18.36 0 17 C-0.99 17 -1.98 17 -3 17 C-3 15.68 -3 14.36 -3 13 C-2.01 13 -1.02 13 0 13 C0 11.35 0 9.7 0 8 C-0.99 8 -1.98 8 -3 8 C-2.67 6.68 -2.34 5.36 -2 4 C-1.34 4 -0.68 4 0 4 C0 2.68 0 1.36 0 0 Z " fill="#AEAEAE" transform="translate(316,104)"/>
<path d="M0 0 C4.95 0 9.9 0 15 0 C15 0.33 15 0.66 15 1 C10.38 1 5.76 1 1 1 C1 8.92 1 16.84 1 25 C-0.32 25 -1.64 25 -3 25 C-3 23.68 -3 22.36 -3 21 C-2.01 21 -1.02 21 0 21 C0 19.68 0 18.36 0 17 C-0.99 17 -1.98 17 -3 17 C-3 15.68 -3 14.36 -3 13 C-2.01 13 -1.02 13 0 13 C0 11.35 0 9.7 0 8 C-0.99 8 -1.98 8 -3 8 C-2.67 6.68 -2.34 5.36 -2 4 C-1.34 4 -0.68 4 0 4 C0 2.68 0 1.36 0 0 Z " fill="#AEAEAE" transform="translate(187,104)"/>
<path d="M0 0 C4.95 0 9.9 0 15 0 C15 0.33 15 0.66 15 1 C10.38 1 5.76 1 1 1 C1 8.92 1 16.84 1 25 C-0.32 25 -1.64 25 -3 25 C-3 23.68 -3 22.36 -3 21 C-2.01 21 -1.02 21 0 21 C0 19.68 0 18.36 0 17 C-0.99 17 -1.98 17 -3 17 C-3 15.68 -3 14.36 -3 13 C-2.01 13 -1.02 13 0 13 C0 11.35 0 9.7 0 8 C-0.99 8 -1.98 8 -3 8 C-2.67 6.68 -2.34 5.36 -2 4 C-1.34 4 -0.68 4 0 4 C0 2.68 0 1.36 0 0 Z " fill="#AEAEAE" transform="translate(789,76)"/>
<path d="M0 0 C4.95 0 9.9 0 15 0 C15 0.33 15 0.66 15 1 C10.38 1 5.76 1 1 1 C1 8.92 1 16.84 1 25 C-0.32 25 -1.64 25 -3 25 C-3 23.68 -3 22.36 -3 21 C-2.01 21 -1.02 21 0 21 C0 19.68 0 18.36 0 17 C-0.99 17 -1.98 17 -3 17 C-3 15.68 -3 14.36 -3 13 C-2.01 13 -1.02 13 0 13 C0 11.35 0 9.7 0 8 C-0.99 8 -1.98 8 -3 8 C-2.67 6.68 -2.34 5.36 -2 4 C-1.34 4 -0.68 4 0 4 C0 2.68 0 1.36 0 0 Z " fill="#AEAEAE" transform="translate(488,76)"/>
<path d="M0 0 C4.95 0 9.9 0 15 0 C15 0.33 15 0.66 15 1 C10.38 1 5.76 1 1 1 C1 8.92 1 16.84 1 25 C-0.32 25 -1.64 25 -3 25 C-3 23.68 -3 22.36 -3 21 C-2.01 21 -1.02 21 0 21 C0 19.68 0 18.36 0 17 C-0.99 17 -1.98 17 -3 17 C-3 15.68 -3 14.36 -3 13 C-2.01 13 -1.02 13 0 13 C0 11.35 0 9.7 0 8 C-0.99 8 -1.98 8 -3 8 C-2.67 6.68 -2.34 5.36 -2 4 C-1.34 4 -0.68 4 0 4 C0 2.68 0 1.36 0 0 Z " fill="#AEAEAE" transform="translate(230,76)"/>
<path d="M0 0 C4.95 0 9.9 0 15 0 C15 0.33 15 0.66 15 1 C10.38 1 5.76 1 1 1 C1 8.92 1 16.84 1 25 C-0.32 25 -1.64 25 -3 25 C-3 23.68 -3 22.36 -3 21 C-2.01 21 -1.02 21 0 21 C0 19.68 0 18.36 0 17 C-0.99 17 -1.98 17 -3 17 C-3 15.68 -3 14.36 -3 13 C-2.01 13 -1.02 13 0 13 C0 11.35 0 9.7 0 8 C-0.99 8 -1.98 8 -3 8 C-2.67 6.68 -2.34 5.36 -2 4 C-1.34 4 -0.68 4 0 4 C0 2.68 0 1.36 0 0 Z " fill="#AEAEAE" transform="translate(187,76)"/>
<path d="M0 0 C4.95 0 9.9 0 15 0 C15 0.33 15 0.66 15 1 C10.38 1 5.76 1 1 1 C1 8.92 1 16.84 1 25 C-0.32 25 -1.64 25 -3 25 C-3 23.68 -3 22.36 -3 21 C-2.01 21 -1.02 21 0 21 C0 19.68 0 18.36 0 17 C-0.99 17 -1.98 17 -3 17 C-3 15.68 -3 14.36 -3 13 C-2.01 13 -1.02 13 0 13 C0 11.35 0 9.7 0 8 C-0.99 8 -1.98 8 -3 8 C-2.67 6.68 -2.34 5.36 -2 4 C-1.34 4 -0.68 4 0 4 C0 2.68 0 1.36 0 0 Z " fill="#AEAEAE" transform="translate(875,20)"/>
<path d="M0 0 C4.95 0 9.9 0 15 0 C15 0.33 15 0.66 15 1 C10.38 1 5.76 1 1 1 C1 8.92 1 16.84 1 25 C-0.32 25 -1.64 25 -3 25 C-3 23.68 -3 22.36 -3 21 C-2.01 21 -1.02 21 0 21 C0 19.68 0 18.36 0 17 C-0.99 17 -1.98 17 -3 17 C-3 15.68 -3 14.36 -3 13 C-2.01 13 -1.02 13 0 13 C0 11.35 0 9.7 0 8 C-0.99 8 -1.98 8 -3 8 C-2.67 6.68 -2.34 5.36 -2 4 C-1.34 4 -0.68 4 0 4 C0 2.68 0 1.36 0 0 Z " fill="#AEAEAE" transform="translate(703,20)"/>
<path d="M0 0 C1.32 0 2.64 0 4 0 C4 3.96 4 7.92 4 12 C3.01 12 2.02 12 1 12 C1 10.68 1 9.36 1 8 C-0.32 8 -1.64 8 -3 8 C-3 6.68 -3 5.36 -3 4 C-2.01 4 -1.02 4 0 4 C0 2.68 0 1.36 0 0 Z " fill="#717172" transform="translate(943,173)"/>
<path d="M0 0 C1.32 0 2.64 0 4 0 C4 3.96 4 7.92 4 12 C3.01 12 2.02 12 1 12 C1 10.68 1 9.36 1 8 C-0.32 8 -1.64 8 -3 8 C-3 6.68 -3 5.36 -3 4 C-2.01 4 -1.02 4 0 4 C0 2.68 0 1.36 0 0 Z " fill="#717172" transform="translate(857,173)"/>
<path d="M0 0 C1.32 0 2.64 0 4 0 C4 3.96 4 7.92 4 12 C3.01 12 2.02 12 1 12 C1 10.68 1 9.36 1 8 C-0.32 8 -1.64 8 -3 8 C-3 6.68 -3 5.36 -3 4 C-2.01 4 -1.02 4 0 4 C0 2.68 0 1.36 0 0 Z " fill="#717172" transform="translate(771,173)"/>
<path d="M0 0 C1.32 0 2.64 0 4 0 C4 3.96 4 7.92 4 12 C3.01 12 2.02 12 1 12 C1 10.68 1 9.36 1 8 C-0.32 8 -1.64 8 -3 8 C-3 6.68 -3 5.36 -3 4 C-2.01 4 -1.02 4 0 4 C0 2.68 0 1.36 0 0 Z " fill="#717172" transform="translate(685,173)"/>
<path d="M0 0 C1.32 0 2.64 0 4 0 C4 3.96 4 7.92 4 12 C3.01 12 2.02 12 1 12 C1 10.68 1 9.36 1 8 C-0.32 8 -1.64 8 -3 8 C-3 6.68 -3 5.36 -3 4 C-2.01 4 -1.02 4 0 4 C0 2.68 0 1.36 0 0 Z " fill="#717172" transform="translate(556,173)"/>
<path d="M0 0 C1.32 0 2.64 0 4 0 C4 3.96 4 7.92 4 12 C3.01 12 2.02 12 1 12 C1 10.68 1 9.36 1 8 C-0.32 8 -1.64 8 -3 8 C-3 6.68 -3 5.36 -3 4 C-2.01 4 -1.02 4 0 4 C0 2.68 0 1.36 0 0 Z " fill="#717172" transform="translate(470,173)"/>
<path d="M0 0 C1.32 0 2.64 0 4 0 C4 3.96 4 7.92 4 12 C3.01 12 2.02 12 1 12 C1 10.68 1 9.36 1 8 C-0.32 8 -1.64 8 -3 8 C-3 6.68 -3 5.36 -3 4 C-2.01 4 -1.02 4 0 4 C0 2.68 0 1.36 0 0 Z " fill="#717172" transform="translate(470,145)"/>
<path d="M0 0 C1.32 0 2.64 0 4 0 C4 3.96 4 7.92 4 12 C3.01 12 2.02 12 1 12 C1 10.68 1 9.36 1 8 C-0.32 8 -1.64 8 -3 8 C-3 6.68 -3 5.36 -3 4 C-2.01 4 -1.02 4 0 4 C0 2.68 0 1.36 0 0 Z " fill="#717172" transform="translate(857,117)"/>
<path d="M0 0 C1.32 0 2.64 0 4 0 C4 3.96 4 7.92 4 12 C3.01 12 2.02 12 1 12 C1 10.68 1 9.36 1 8 C-0.32 8 -1.64 8 -3 8 C-3 6.68 -3 5.36 -3 4 C-2.01 4 -1.02 4 0 4 C0 2.68 0 1.36 0 0 Z " fill="#717172" transform="translate(470,117)"/>
<path d="M0 0 C1.32 0 2.64 0 4 0 C4 3.96 4 7.92 4 12 C3.01 12 2.02 12 1 12 C1 10.68 1 9.36 1 8 C-0.32 8 -1.64 8 -3 8 C-3 6.68 -3 5.36 -3 4 C-2.01 4 -1.02 4 0 4 C0 2.68 0 1.36 0 0 Z " fill="#717172" transform="translate(943,61)"/>
<path d="M0 0 C1.32 0 2.64 0 4 0 C4 3.96 4 7.92 4 12 C3.01 12 2.02 12 1 12 C1 10.68 1 9.36 1 8 C-0.32 8 -1.64 8 -3 8 C-3 6.68 -3 5.36 -3 4 C-2.01 4 -1.02 4 0 4 C0 2.68 0 1.36 0 0 Z " fill="#717172" transform="translate(857,61)"/>
<path d="M0 0 C1.32 0 2.64 0 4 0 C4 3.96 4 7.92 4 12 C3.01 12 2.02 12 1 12 C1 10.68 1 9.36 1 8 C-0.32 8 -1.64 8 -3 8 C-3 6.68 -3 5.36 -3 4 C-2.01 4 -1.02 4 0 4 C0 2.68 0 1.36 0 0 Z " fill="#717172" transform="translate(771,61)"/>
<path d="M0 0 C1.32 0 2.64 0 4 0 C4 3.96 4 7.92 4 12 C3.01 12 2.02 12 1 12 C1 10.68 1 9.36 1 8 C-0.32 8 -1.64 8 -3 8 C-3 6.68 -3 5.36 -3 4 C-2.01 4 -1.02 4 0 4 C0 2.68 0 1.36 0 0 Z " fill="#717172" transform="translate(685,61)"/>
<path d="M0 0 C0.33 0 0.66 0 1 0 C1 7.92 1 15.84 1 24 C0.01 24 -0.98 24 -2 24 C-2 22.68 -2 21.36 -2 20 C-1.34 20 -0.68 20 0 20 C0 18.68 0 17.36 0 16 C-0.99 16 -1.98 16 -3 16 C-3 14.68 -3 13.36 -3 12 C-2.01 12 -1.02 12 0 12 C0 10.35 0 8.7 0 7 C-0.66 7 -1.32 7 -2 7 C-2 5.68 -2 4.36 -2 3 C-1.34 3 -0.68 3 0 3 C0 2.01 0 1.02 0 0 Z " fill="#848485" transform="translate(330,189)"/>
<path d="M0 0 C0.33 0 0.66 0 1 0 C1 7.92 1 15.84 1 24 C0.01 24 -0.98 24 -2 24 C-2 22.68 -2 21.36 -2 20 C-1.34 20 -0.68 20 0 20 C0 18.68 0 17.36 0 16 C-0.99 16 -1.98 16 -3 16 C-3 14.68 -3 13.36 -3 12 C-2.01 12 -1.02 12 0 12 C0 10.35 0 8.7 0 7 C-0.66 7 -1.32 7 -2 7 C-2 5.68 -2 4.36 -2 3 C-1.34 3 -0.68 3 0 3 C0 2.01 0 1.02 0 0 Z " fill="#848485" transform="translate(29,189)"/>
<path d="M0 0 C0.33 0 0.66 0 1 0 C1 7.92 1 15.84 1 24 C0.01 24 -0.98 24 -2 24 C-2 22.68 -2 21.36 -2 20 C-1.34 20 -0.68 20 0 20 C0 18.68 0 17.36 0 16 C-0.99 16 -1.98 16 -3 16 C-3 14.68 -3 13.36 -3 12 C-2.01 12 -1.02 12 0 12 C0 10.35 0 8.7 0 7 C-0.66 7 -1.32 7 -2 7 C-2 5.68 -2 4.36 -2 3 C-1.34 3 -0.68 3 0 3 C0 2.01 0 1.02 0 0 Z " fill="#848485" transform="translate(416,161)"/>
<path d="M0 0 C0.33 0 0.66 0 1 0 C1 7.92 1 15.84 1 24 C0.01 24 -0.98 24 -2 24 C-2 22.68 -2 21.36 -2 20 C-1.34 20 -0.68 20 0 20 C0 18.68 0 17.36 0 16 C-0.99 16 -1.98 16 -3 16 C-3 14.68 -3 13.36 -3 12 C-2.01 12 -1.02 12 0 12 C0 10.35 0 8.7 0 7 C-0.66 7 -1.32 7 -2 7 C-2 5.68 -2 4.36 -2 3 C-1.34 3 -0.68 3 0 3 C0 2.01 0 1.02 0 0 Z " fill="#848485" transform="translate(29,161)"/>
<path d="M0 0 C0.33 0 0.66 0 1 0 C1 7.92 1 15.84 1 24 C0.01 24 -0.98 24 -2 24 C-2 22.68 -2 21.36 -2 20 C-1.34 20 -0.68 20 0 20 C0 18.68 0 17.36 0 16 C-0.99 16 -1.98 16 -3 16 C-3 14.68 -3 13.36 -3 12 C-2.01 12 -1.02 12 0 12 C0 10.35 0 8.7 0 7 C-0.66 7 -1.32 7 -2 7 C-2 5.68 -2 4.36 -2 3 C-1.34 3 -0.68 3 0 3 C0 2.01 0 1.02 0 0 Z " fill="#848485" transform="translate(674,133)"/>
<path d="M0 0 C0.33 0 0.66 0 1 0 C1 7.92 1 15.84 1 24 C0.01 24 -0.98 24 -2 24 C-2 22.68 -2 21.36 -2 20 C-1.34 20 -0.68 20 0 20 C0 18.68 0 17.36 0 16 C-0.99 16 -1.98 16 -3 16 C-3 14.68 -3 13.36 -3 12 C-2.01 12 -1.02 12 0 12 C0 10.35 0 8.7 0 7 C-0.66 7 -1.32 7 -2 7 C-2 5.68 -2 4.36 -2 3 C-1.34 3 -0.68 3 0 3 C0 2.01 0 1.02 0 0 Z " fill="#848485" transform="translate(416,133)"/>
<path d="M0 0 C0.33 0 0.66 0 1 0 C1 7.92 1 15.84 1 24 C0.01 24 -0.98 24 -2 24 C-2 22.68 -2 21.36 -2 20 C-1.34 20 -0.68 20 0 20 C0 18.68 0 17.36 0 16 C-0.99 16 -1.98 16 -3 16 C-3 14.68 -3 13.36 -3 12 C-2.01 12 -1.02 12 0 12 C0 10.35 0 8.7 0 7 C-0.66 7 -1.32 7 -2 7 C-2 5.68 -2 4.36 -2 3 C-1.34 3 -0.68 3 0 3 C0 2.01 0 1.02 0 0 Z " fill="#848485" transform="translate(29,133)"/>
<path d="M0 0 C0.33 0 0.66 0 1 0 C1 7.92 1 15.84 1 24 C0.01 24 -0.98 24 -2 24 C-2 22.68 -2 21.36 -2 20 C-1.34 20 -0.68 20 0 20 C0 18.68 0 17.36 0 16 C-0.99 16 -1.98 16 -3 16 C-3 14.68 -3 13.36 -3 12 C-2.01 12 -1.02 12 0 12 C0 10.35 0 8.7 0 7 C-0.66 7 -1.32 7 -2 7 C-2 5.68 -2 4.36 -2 3 C-1.34 3 -0.68 3 0 3 C0 2.01 0 1.02 0 0 Z " fill="#848485" transform="translate(674,105)"/>
<path d="M0 0 C0.33 0 0.66 0 1 0 C1 7.92 1 15.84 1 24 C0.01 24 -0.98 24 -2 24 C-2 22.68 -2 21.36 -2 20 C-1.34 20 -0.68 20 0 20 C0 18.68 0 17.36 0 16 C-0.99 16 -1.98 16 -3 16 C-3 14.68 -3 13.36 -3 12 C-2.01 12 -1.02 12 0 12 C0 10.35 0 8.7 0 7 C-0.66 7 -1.32 7 -2 7 C-2 5.68 -2 4.36 -2 3 C-1.34 3 -0.68 3 0 3 C0 2.01 0 1.02 0 0 Z " fill="#848485" transform="translate(416,105)"/>
<path d="M0 0 C0.33 0 0.66 0 1 0 C1 7.92 1 15.84 1 24 C0.01 24 -0.98 24 -2 24 C-2 22.68 -2 21.36 -2 20 C-1.34 20 -0.68 20 0 20 C0 18.68 0 17.36 0 16 C-0.99 16 -1.98 16 -3 16 C-3 14.68 -3 13.36 -3 12 C-2.01 12 -1.02 12 0 12 C0 10.35 0 8.7 0 7 C-0.66 7 -1.32 7 -2 7 C-2 5.68 -2 4.36 -2 3 C-1.34 3 -0.68 3 0 3 C0 2.01 0 1.02 0 0 Z " fill="#848485" transform="translate(29,105)"/>
<path d="M0 0 C0.33 0 0.66 0 1 0 C1 7.92 1 15.84 1 24 C0.01 24 -0.98 24 -2 24 C-2 22.68 -2 21.36 -2 20 C-1.34 20 -0.68 20 0 20 C0 18.68 0 17.36 0 16 C-0.99 16 -1.98 16 -3 16 C-3 14.68 -3 13.36 -3 12 C-2.01 12 -1.02 12 0 12 C0 10.35 0 8.7 0 7 C-0.66 7 -1.32 7 -2 7 C-2 5.68 -2 4.36 -2 3 C-1.34 3 -0.68 3 0 3 C0 2.01 0 1.02 0 0 Z " fill="#848485" transform="translate(846,77)"/>
<path d="M0 0 C0.33 0 0.66 0 1 0 C1 7.92 1 15.84 1 24 C0.01 24 -0.98 24 -2 24 C-2 22.68 -2 21.36 -2 20 C-1.34 20 -0.68 20 0 20 C0 18.68 0 17.36 0 16 C-0.99 16 -1.98 16 -3 16 C-3 14.68 -3 13.36 -3 12 C-2.01 12 -1.02 12 0 12 C0 10.35 0 8.7 0 7 C-0.66 7 -1.32 7 -2 7 C-2 5.68 -2 4.36 -2 3 C-1.34 3 -0.68 3 0 3 C0 2.01 0 1.02 0 0 Z " fill="#848485" transform="translate(674,77)"/>
<path d="M0 0 C0.33 0 0.66 0 1 0 C1 7.92 1 15.84 1 24 C0.01 24 -0.98 24 -2 24 C-2 22.68 -2 21.36 -2 20 C-1.34 20 -0.68 20 0 20 C0 18.68 0 17.36 0 16 C-0.99 16 -1.98 16 -3 16 C-3 14.68 -3 13.36 -3 12 C-2.01 12 -1.02 12 0 12 C0 10.35 0 8.7 0 7 C-0.66 7 -1.32 7 -2 7 C-2 5.68 -2 4.36 -2 3 C-1.34 3 -0.68 3 0 3 C0 2.01 0 1.02 0 0 Z " fill="#848485" transform="translate(330,77)"/>
<path d="M0 0 C0.33 0 0.66 0 1 0 C1 7.92 1 15.84 1 24 C0.01 24 -0.98 24 -2 24 C-2 22.68 -2 21.36 -2 20 C-1.34 20 -0.68 20 0 20 C0 18.68 0 17.36 0 16 C-0.99 16 -1.98 16 -3 16 C-3 14.68 -3 13.36 -3 12 C-2.01 12 -1.02 12 0 12 C0 10.35 0 8.7 0 7 C-0.66 7 -1.32 7 -2 7 C-2 5.68 -2 4.36 -2 3 C-1.34 3 -0.68 3 0 3 C0 2.01 0 1.02 0 0 Z " fill="#848485" transform="translate(29,77)"/>
<path d="M0 0 C0.33 0 0.66 0 1 0 C1 7.92 1 15.84 1 24 C0.01 24 -0.98 24 -2 24 C-2 22.68 -2 21.36 -2 20 C-1.34 20 -0.68 20 0 20 C0 18.68 0 17.36 0 16 C-0.99 16 -1.98 16 -3 16 C-3 14.68 -3 13.36 -3 12 C-2.01 12 -1.02 12 0 12 C0 10.35 0 8.7 0 7 C-0.66 7 -1.32 7 -2 7 C-2 5.68 -2 4.36 -2 3 C-1.34 3 -0.68 3 0 3 C0 2.01 0 1.02 0 0 Z " fill="#848485" transform="translate(29,49)"/>
<path d="M0 0 C0.33 0 0.66 0 1 0 C1 7.92 1 15.84 1 24 C0.01 24 -0.98 24 -2 24 C-2 22.68 -2 21.36 -2 20 C-1.34 20 -0.68 20 0 20 C0 18.68 0 17.36 0 16 C-0.99 16 -1.98 16 -3 16 C-3 14.68 -3 13.36 -3 12 C-2.01 12 -1.02 12 0 12 C0 10.35 0 8.7 0 7 C-0.66 7 -1.32 7 -2 7 C-2 5.68 -2 4.36 -2 3 C-1.34 3 -0.68 3 0 3 C0 2.01 0 1.02 0 0 Z " fill="#848485" transform="translate(29,21)"/>
</svg>
